<svg xmlns="http://www.w3.org/2000/svg" shape-rendering="geometricPrecision" text-rendering="geometricPrecision"
     image-rendering="optimizeQuality" fill-rule="evenodd" clip-rule="evenodd" viewBox="0 0 451 512.13">
    <path fill="white"
          d="M450.54 244.15c-.94 28.15-6 54.13-15.19 77.76-9.1 23.64-21.11 41.46-35.93 53.47-14.91 12.01-31.7 18.01-50.56 18.01-18.38 0-33.2-5.63-44.55-16.79-11.35-11.16-18.01-26.64-20.07-46.43-20.17 42.11-50.65 63.22-91.55 63.22-24.86 0-43.43-11.45-55.62-34.24-12.19-22.79-16.6-53.09-13.32-90.98 4.41-45.96 17.73-82.73 39.86-110.31 22.14-27.57 48.87-41.36 80.2-41.36 21.11 0 39.21 6 54.4 18.1l14.35 12.1-13.5 160.86c-1.97 22.51 1.41 39.96 10.32 52.34 8.91 12.38 22.32 18.58 40.24 18.58 24.57 0 44.36-11.83 59.56-35.46 15.1-23.64 23.63-56.56 25.6-98.77 4.04-75.32-10.6-132.26-43.89-170.71-33.4-38.55-84.05-57.78-151.96-57.78-41.08 0-78.32 10.22-111.9 30.76-33.48 20.55-59.84 49.15-79.07 85.83-19.32 36.67-30.11 78.04-32.45 124.28-2.25 46.71 4.41 88.36 19.79 124.94 15.38 36.58 38.64 65.09 69.78 85.45 31.15 20.35 67.82 30.48 109.93 30.48 16.51 0 32.74-1.97 48.87-5.91 16.14-3.94 30.11-9.28 41.84-16.04l6.56 12.57c-11.72 7.69-26.92 13.61-45.49 17.73-18.57 4.22-36.21 6.28-52.9 6.28-45.78 0-85.17-10.31-118.19-30.95-32.92-20.54-57.59-50.27-74-89.01C5.28 353.43-1.85 308.22.41 256.35c2.15-51.31 13.41-96.33 33.76-135.16 20.36-38.84 48.31-68.76 83.95-89.77C153.76 10.51 194.38 0 239.97 0c71.84 0 125.78 21.01 161.7 63.13 36.02 42.02 52.34 102.33 48.87 181.02zm-312.25 67.16c2.06 21.3 7.78 37.81 17.16 49.72 9.48 11.81 21.67 17.73 36.77 17.73 22.89 0 41.74-7.13 56.56-21.39 14.82-14.16 26.92-35.55 36.3-63.97l11.82-139.67c-12.66-15.1-30.58-22.6-53.84-22.6-23.36 0-43.8 9.19-61.44 27.58-17.72 18.29-30.2 43.71-37.51 75.97-6.29 27.95-8.17 53.46-5.82 76.63z"/>
</svg>
