<?xml version="1.0" encoding="utf-8"?>
<!-- Generator: Adobe Illustrator 22.0.0, SVG Export Plug-In . SVG Version: 6.00 Build 0)  -->
<svg version="1.1" id="Layer_1" xmlns="http://www.w3.org/2000/svg" xmlns:xlink="http://www.w3.org/1999/xlink" x="0px" y="0px"
	 viewBox="0 0 1920 1080" style="enable-background:new 0 0 1920 1080;" xml:space="preserve">
<style type="text/css">
	.st0{fill:#40809D;}
	.st1{fill:#CFAD80;}
	.st2{fill:#FFFFFF;}
</style>
<rect class="st0" width="1920" height="1080"/>
<g>
	<g>
		<path class="st1" d="M1152.5,360.4l8.5,34.3l2-1.1l-1.1-39.5c0,0,17.8-11.2,21.8-14.5c1.3-1.3,6.3-6.1,4.9-9.2
			c-2.3-2.5-8.8,0-10.4,0.7c-4.6,2.2-22.1,13.9-22.1,13.9l-35.6-17.2l-1.8,1.3l27.8,21.8c0,0-8.5,6.3-12.8,9.7
			c-4.3,3.4-14,11.7-14,11.7l-11.7-4.1l-0.2,0.9l8.7,8l3.7,11.2l0.9,0.2l1-12.3c0,0,11.6-5.4,16.4-7.9S1152.5,360.4,1152.5,360.4z"
			/>
		<g>
			<path class="st1" d="M1035.8,422.2c24.8-7.7,46.8-20.2,65.2-36.2c-13.4,8.6-28.2,15.5-44.1,20.4c-1.5,0.5-3,0.9-4.5,1.3
				c-1.2,0.3-2.4,0.7-3.6,1c-1.2,0.3-2.3,0.6-3.5,0.9l-0.3,0.1c-1.3,0.3-2.5,0.6-3.8,0.8c-1.1,0.3-2.3,0.5-3.5,0.7
				c-0.4,0.1-0.8,0.1-1.1,0.2c-1.1,0.2-2.1,0.4-3.2,0.6c-1.3,0.2-2.6,0.4-3.9,0.6c-2.1,0.3-4.1,0.6-6.2,0.8
				c-3.3,0.4-6.5,0.6-9.8,0.8c-0.8,0-1.7,0.1-2.5,0.1c-0.9,0.1-1.8,0.1-2.8,0.1c-2.2,0.1-4.3,0.1-6.5,0.1c-2.5,0-4.9-0.1-7.4-0.2
				c-1.3-0.1-2.6-0.1-3.9-0.2c-1.3-0.1-2.6-0.2-3.8-0.3c-1-0.1-1.9-0.2-2.9-0.3c-1.2-0.1-2.3-0.3-3.5-0.4c-1-0.1-1.9-0.3-2.9-0.4
				c-1.1-0.2-2.2-0.3-3.2-0.5c-0.9-0.1-1.8-0.3-2.7-0.5c-1.5-0.3-3-0.6-4.4-0.9c-2.3-0.5-4.5-1-6.8-1.5c-0.8-0.2-1.7-0.4-2.5-0.6
				c-1.6-0.4-3.3-0.9-4.9-1.4c-1.2-0.3-2.4-0.7-3.6-1.1c-1.2-0.4-2.4-0.8-3.6-1.2c-1.2-0.4-2.4-0.8-3.6-1.2
				c-1.2-0.4-2.4-0.9-3.6-1.3c-1.2-0.4-2.4-0.9-3.5-1.4c-1.4-0.6-2.8-1.2-4.2-1.8c-0.7-0.3-1.5-0.7-2.2-1c-1.1-0.5-2.1-1-3.2-1.5
				c0,0-0.1,0-0.1,0c0,0-0.1,0-0.1-0.1c-2.9-1.2-5.8-2.2-8.7-3.3c-22.5-10.5-47.2-16.5-72.7-17c-18.8-0.4-38.1,2.2-57.1,8
				c-24.8,7.7-46.8,20.2-65.2,36.2c13.4-8.6,28.2-15.5,44.1-20.4c1.5-0.5,3-0.9,4.5-1.3c1.2-0.3,2.4-0.7,3.6-1
				c1.2-0.3,2.3-0.6,3.5-0.9l0.3-0.1c1.3-0.3,2.5-0.6,3.8-0.8c1.1-0.3,2.3-0.5,3.5-0.7c0.4-0.1,0.8-0.1,1.1-0.2
				c1.1-0.2,2.1-0.4,3.2-0.6c1.3-0.2,2.6-0.4,3.9-0.6c2.1-0.3,4.1-0.6,6.2-0.8c3.3-0.4,6.5-0.6,9.8-0.8c0.8,0,1.7-0.1,2.5-0.1
				c0.9-0.1,1.8-0.1,2.8-0.1c2.2-0.1,4.3-0.1,6.5-0.1c2.5,0,4.9,0.1,7.4,0.2c1.3,0.1,2.6,0.1,3.9,0.2c1.3,0.1,2.6,0.2,3.8,0.3
				c1,0.1,1.9,0.2,2.9,0.3c1.2,0.1,2.3,0.3,3.5,0.4c1,0.1,1.9,0.3,2.9,0.4c1.1,0.2,2.2,0.3,3.2,0.5c0.9,0.1,1.8,0.3,2.7,0.5
				c1.5,0.3,3,0.6,4.4,0.9c2.3,0.5,4.5,1,6.8,1.5c0.8,0.2,1.7,0.4,2.5,0.6c1.6,0.4,3.3,0.9,4.9,1.4c1.2,0.3,2.4,0.7,3.6,1.1
				c1.2,0.4,2.4,0.8,3.6,1.2c1.2,0.4,2.4,0.8,3.6,1.2c1.2,0.4,2.4,0.9,3.6,1.3c1.2,0.4,2.4,0.9,3.5,1.4c1.4,0.6,2.8,1.2,4.2,1.8
				c0.7,0.3,1.5,0.7,2.2,1c1.1,0.5,2.1,1,3.2,1.5c0,0,0.1,0,0.1,0c0,0,0.1,0,0.1,0.1c2.9,1.2,5.8,2.2,8.7,3.3
				c22.5,10.5,47.2,16.5,72.7,17C997.5,430.7,1016.8,428.1,1035.8,422.2z"/>
		</g>
	</g>
	<g>
		<path class="st2" d="M635.1,743.4v-25.7l-12.2,15.5l-12.2-15.5v25.7h-3.6v-32.7h2.1l13.8,17.6l13.8-17.6h2.1v32.7H635.1z"/>
		<path class="st2" d="M669.3,726.5c0.7,1.8,0.9,4.5,0.4,6h-19.3c0,5,3.7,8,8.8,8.1c3,0,5.8-0.9,8.1-2.5l1.8,2.1
			c-2.6,2-5.9,3.5-9.9,3.5c-7.2,0-12.2-4.9-12.2-12c0-6.6,4.7-12,11.9-12C663.9,719.7,667.6,722.4,669.3,726.5z M650.5,730.2h16.1
			c0-0.8-0.2-1.9-0.5-2.7c-1.2-2.8-3.8-4.7-7.3-4.7C654.1,722.8,650.7,726.2,650.5,730.2z"/>
		<path class="st2" d="M695.3,743.4v-9.2c-1.5,2.6-4.4,4-8,4c-7.8,0-10.6-4.7-10.6-11.7V720h3.4v6.3c0,5.6,1.8,8.7,7.6,8.7
			c5.7,0,7.5-3.7,7.5-7.8V720h3.4v23.4H695.3z"/>
		<path class="st2" d="M716.7,743.4h-3.4v-20.1h-8.5V720h20.5v3.2h-8.5V743.4z"/>
		<path class="st2" d="M750.6,743.4l-0.1-5.3c-1.8,3.3-5.3,5.6-9.5,5.6c-6.6,0-11.7-5.3-11.7-12c0-6.6,5-12,11.7-12
			c4.2,0,7.7,2.3,9.5,5.6l0.1-5.2h2.4v23.4H750.6z M749.8,731.7c0-5-3.9-8.7-8.6-8.7c-4.6,0-8.5,3.7-8.5,8.7c0,5,3.9,8.7,8.5,8.7
			C745.9,740.4,749.8,736.8,749.8,731.7z"/>
		<path class="st2" d="M779.3,743.4v-17.7l-15.6,17.7h-2.1V720h3.4v17.7l15.6-17.7h2v23.4H779.3z M765.5,711.3h2.5
			c0,2.1,1.8,3.6,4.2,3.6s4.3-1.5,4.3-3.6h2.4c0,3.5-2.9,6.1-6.7,6.1S765.5,714.7,765.5,711.3z"/>
		<path class="st2" d="M794.4,741.7c0,1.2-1,2.1-2.2,2.1c-1.3,0-2.2-0.9-2.2-2.1c0-1.1,1-2,2.2-2
			C793.4,739.7,794.4,740.6,794.4,741.7z"/>
		<path class="st2" d="M838.1,743.4v-25.6l-19.1,25.6H817v-32.7h3.6v25.6l19.1-25.6h2v32.7H838.1z"/>
		<path class="st2" d="M870.7,724.1l-2.1,2.2c-2-2.1-4.4-3.3-7.1-3.3c-4.7,0-8.5,3.7-8.5,8.7c0,5,3.9,8.7,8.5,8.7
			c2.8,0,5.2-1.1,7.1-3.2l2.1,2.2c-2.2,2.6-5.5,4.3-9.2,4.3c-6.6,0-12-5.3-12-12c0-6.6,5.3-12,12-12
			C865.1,719.7,868.5,721.4,870.7,724.1z"/>
		<path class="st2" d="M897.5,724.1l-2.1,2.2c-2-2.1-4.4-3.3-7.1-3.3c-4.7,0-8.5,3.7-8.5,8.7c0,5,3.9,8.7,8.5,8.7
			c2.8,0,5.2-1.1,7.1-3.2l2.1,2.2c-2.2,2.6-5.5,4.3-9.2,4.3c-6.6,0-12-5.3-12-12c0-6.6,5.3-12,12-12
			C892,719.7,895.3,721.4,897.5,724.1z"/>
		<path class="st2" d="M905.4,743.4h-3.6l10.7-23.4h2.1l10.8,23.4h-3.6l-8.2-18.1L905.4,743.4z"/>
		<path class="st2" d="M951,726.5c0.7,1.8,0.9,4.5,0.4,6h-19.3c0,5,3.7,8,8.8,8.1c3,0,5.8-0.9,8.1-2.5l1.8,2.1
			c-2.6,2-5.9,3.5-9.9,3.5c-7.2,0-12.2-4.9-12.2-12c0-6.6,4.7-12,11.9-12C945.7,719.7,949.4,722.4,951,726.5z M932.3,730.2h16.1
			c0-0.8-0.2-1.9-0.5-2.7c-1.2-2.8-3.8-4.7-7.3-4.7C935.8,722.8,932.5,726.2,932.3,730.2z"/>
		<path class="st2" d="M980,748.6v-5.2h-20.1v5.2h-3.4v-8.4h3.2l9.2-20.1h2.1l9.2,20.1h3.2v8.4H980z M963.1,740.2h13.6l-6.8-14.9
			L963.1,740.2z"/>
		<path class="st2" d="M1011.5,740.5c0,7.1-4,11.8-11.4,11.9c-4.1,0-7.5-1.4-10-3.6l2-2.1c2.3,1.6,4.9,2.6,8.1,2.6
			c5.1,0,7.9-2.9,7.9-8.1v-2.8c-1.7,3.6-5.4,5-8.5,5c-6.4,0-10.2-4.1-10.2-11.1V720h3.4v12.1c0,5.6,2.9,8,7.2,8c4.9,0,8-3.3,8-9.2
			V720h3.4V740.5z"/>
		<path class="st2" d="M1037.5,743.4v-17.7l-15.6,17.7h-2.1V720h3.4v17.7l15.6-17.7h2v23.4H1037.5z M1023.7,711.3h2.5
			c0,2.1,1.8,3.6,4.2,3.6s4.3-1.5,4.3-3.6h2.4c0,3.5-2.9,6.1-6.7,6.1S1023.7,714.7,1023.7,711.3z"/>
		<path class="st2" d="M1052.7,741.7c0,1.2-1,2.1-2.2,2.1c-1.3,0-2.2-0.9-2.2-2.1c0-1.1,1-2,2.2-2
			C1051.6,739.7,1052.7,740.6,1052.7,741.7z"/>
		<path class="st2" d="M1106.9,727.1c0,9.2-7.5,16.7-16.7,16.7c-9.2,0-16.6-7.4-16.6-16.7c0-9.2,7.4-16.7,16.6-16.7
			C1099.5,710.4,1106.9,717.8,1106.9,727.1z M1077.3,727.1c0,7.6,5.7,13.3,13,13.3c7.2,0,13-5.7,13-13.3c0-7.6-5.8-13.3-13-13.3
			C1083,713.8,1077.3,719.5,1077.3,727.1z"/>
		<path class="st2" d="M1123.8,743.4h-3.4v-20.1h-8.5V720h20.5v3.2h-8.5V743.4z"/>
		<path class="st2" d="M1151.9,737.5c-2.2-3.4-3-4.5-6.4-4.5h-3.6v10.4h-3.4V720h3.4v9.7h3c3.4,0,4.2-1.2,6.4-4.5l3.4-5.1h3.8
			l-4.4,6.6c-1.5,2.3-2.7,3.9-4.2,4.6c1.8,0.5,3,2.2,4.7,4.8l4.8,7.4h-3.8L1151.9,737.5z"/>
		<path class="st2" d="M1189.4,731.7c0,6.6-5,12-11.7,12c-3.8,0-7.1-2.1-8.6-5V752h-3.4v-32h2.4l0.1,5.3c1.8-3.3,5.3-5.6,9.5-5.6
			C1184.4,719.7,1189.4,725.1,1189.4,731.7z M1168.8,731.7c0,5,4,8.7,8.6,8.7c4.6,0,8.6-3.7,8.6-8.7c0-5-3.9-8.7-8.6-8.7
			C1172.8,723,1168.8,726.7,1168.8,731.7z"/>
		<path class="st2" d="M1208.1,727.6c7.3,0,9.2,4.2,9.2,7.8c0,3.8-2,7.9-9.2,7.9h-11.4V720h3.4v7.6H1208.1z M1208.4,740.2
			c4.3,0,5.6-2.1,5.6-4.8c0-2.5-1.3-4.7-5.6-4.7h-8.4v9.4H1208.4z M1220.3,743.4V720h3.4v23.4H1220.3z"/>
		<path class="st2" d="M1244.6,720c5.3,0,7.5,2.6,7.5,6c0,2.3-1,4.3-3.5,5.1c3.1,0.7,4.5,2.9,4.5,5.6c0,4.3-2.5,6.6-8.5,6.6h-12.3
			V720H1244.6z M1235.7,730h8.7c3.2,0,4.3-1.5,4.3-3.5s-1.1-3.5-4.3-3.5h-8.6V730z M1244.7,740.5c3.7,0,5-1.6,5-4
			c0-2.3-1.3-3.9-5-3.9l-9,0v7.9H1244.7z"/>
		<path class="st2" d="M1279.8,743.4l-0.1-5.3c-1.8,3.3-5.3,5.6-9.5,5.6c-6.6,0-11.7-5.3-11.7-12c0-6.6,5-12,11.7-12
			c4.2,0,7.7,2.3,9.5,5.6l0.1-5.2h2.4v23.4H1279.8z M1279,731.7c0-5-3.9-8.7-8.6-8.7c-4.6,0-8.5,3.7-8.5,8.7c0,5,3.9,8.7,8.5,8.7
			C1275.1,740.4,1279,736.8,1279,731.7z"/>
		<path class="st2" d="M1308.5,743.4v-17.7l-15.6,17.7h-2.1V720h3.4v17.7l15.6-17.7h2v23.4H1308.5z M1294.7,711.3h2.5
			c0,2.1,1.8,3.6,4.2,3.6c2.4,0,4.3-1.5,4.3-3.6h2.4c0,3.5-2.9,6.1-6.7,6.1S1294.7,714.7,1294.7,711.3z"/>
	</g>
	<g>
		<path class="st2" d="M576.2,502.8c0,3.2-0.9,8.9-2.8,17.3c-4.9,20.9-13.7,40.9-26.3,59.8c-12.6,19-27.6,35.8-45.1,50.5l-1.4-1.1
			l7.2-83.5c0.4-3.8,0.5-7.4,0.5-10.9c0-19.7-13.2-29.6-39.7-29.6c-4.6,0-9,0.4-13.2,1.3c-4.2,0.9-8.4,2.3-12.4,4.1
			c-4.1,1.9-7.3,4.6-9.8,8.2c-2.5,3.6-3.7,7.8-3.7,12.6c0,4.5,1.2,8.3,3.5,11.5c2.3,3.2,5.5,5.7,9.3,7.4c3.9,1.7,7.8,2.9,11.7,3.6
			c3.9,0.7,8,1.1,12.1,1.1c2.8,0,7.1-0.4,12.7-1.1l1.1,0.4l0.4,1.9l-0.5,1.1c-5.3,1.1-10.6,1.6-16,1.6c-5.1,0-10-0.4-14.7-1.3
			c-4.8-0.9-9.5-2.3-14.2-4.3c-4.7-2-8.5-5-11.4-9c-2.9-4-4.3-8.7-4.3-14.1c0-5.5,1.5-10.3,4.6-14.3c3.1-4,7.1-7,12.2-9
			c5.1-2,10-3.4,15-4.2c4.9-0.8,10-1.2,15.2-1.2c7.8,0,14.6,0.6,20.4,1.7c5.9,1.1,11.5,3.1,16.7,5.9c5.3,2.8,9.3,7,12.2,12.4
			c2.8,5.5,4.2,12.1,4.2,20c0,5.8-0.3,12.2-0.8,19.3c-0.5,7.1-1,12.8-1.5,17.1c-0.5,4.3-1.3,11-2.5,20.2c-1.2,9.2-1.9,15-2.3,17.6
			c36.2-36,52.8-71.7,49.7-107.2l12.2-9.9l1.2,0.4C576,500.3,576.2,501.5,576.2,502.8z"/>
		<path class="st2" d="M647.8,577.4c0,4-4.8,11.7-14.4,23.2c-9.6,11.5-16.6,17.2-21.1,17.2c-2.6,0-4.8-1.1-6.7-3.2
			c-8,8-16.1,12-24.3,12c-6.7,0-12.1-2.1-16.1-6.2c-4.1-4.1-6.1-9.5-6.1-16.2c0-9.8,4.1-19,12.2-27.8c8.2-8.8,17.1-13.2,26.9-13.2
			c6,0,10.8,2.2,14.4,6.7c3.6,4.5,5.4,9.8,5.4,15.9c0,6.8-2.2,14-6.7,21.5c0.5,2.5,1.9,3.7,4.4,3.7c1.1,0,2.3-0.5,3.9-1.6
			c1.5-1.1,3.2-2.6,5-4.5c1.8-1.9,3.6-4,5.4-6.1c1.8-2.1,3.6-4.5,5.6-7.1c1.9-2.6,3.6-4.9,4.9-6.7c1.3-1.8,2.8-3.8,4.2-5.9
			c1.5-2.1,2.3-3.3,2.6-3.7c0,0.1,0.1,0.3,0.2,0.6c0.1,0.3,0.2,0.6,0.3,0.8C647.7,576.9,647.8,577.2,647.8,577.4z M609,579.2
			c-1.6-8.2-5.5-12.3-11.6-12.3c-4.6,0-8.9,2.6-13,7.7c-4.1,5.1-7.2,10.8-9.3,16.9c-2.1,6.2-3.2,11.5-3.2,16c0,4.2,0.9,7.8,2.6,10.8
			c1.8,3,4.6,4.5,8.6,4.5c6.1,0,12.3-4.9,18.7-14.8c-0.8-2-1.2-4.2-1.2-6.5C600.5,594.1,603.4,586.7,609,579.2z"/>
		<path class="st2" d="M725.7,579.3c0,4.2-6.3,13.3-18.8,27.1c-12.5,13.9-21.7,22.9-27.6,27c-6,22.6-16.9,36.7-32.8,42.5l-1.1-0.2
			c-0.8-2.1-1.2-4.6-1.2-7.4c0-12.6,8.8-25.3,26.3-38.1c0.5-3.2,1.1-6.7,2-10.6s1.7-7.1,2.4-9.6c0.7-2.5,1.8-6.1,3.3-10.8
			c1.5-4.7,2.4-7.9,2.9-9.7c-14,23.1-26.6,34.7-37.9,34.7c-2.8,0-5-1-6.6-3c-1.6-2-2.4-4.4-2.4-7.2c0-2.3,0.8-5.8,2.3-10.4
			l11.5-35.4c0.4-1.3,1.9-2.3,4.5-2.9c2.6-0.6,4.7-0.9,6.3-0.6l1.1,0.9c-0.7,3.8-3.2,11.6-7.6,23.4c-4.3,11.9-6.5,20.4-6.5,25.6
			c0,0.9,0.4,1.7,1.1,2.4c0.7,0.6,1.5,1,2.5,1c3.5,0,7.8-2.7,12.7-8.1c4.9-5.4,9.3-11.4,13.1-17.9c3.8-6.5,7.3-12.5,10.6-18.1
			c3.2-5.5,5.2-8.3,5.9-8.5c3.5-0.6,6.1-0.9,7.6-0.9l1.2,0.9c0,0.5-0.2,1.3-0.6,2.6c-0.4,1.2-0.9,2.6-1.5,4.1
			c-0.6,1.5-0.9,2.4-1.1,2.6c-6.1,16.2-11.5,33.8-16.2,52.7c5.3-4.3,10.8-9.6,16.5-15.9c5.7-6.2,10.4-11.7,14-16.3
			c3.6-4.6,8.2-10.7,13.7-18.2C725.5,577.7,725.7,578.5,725.7,579.3z M670.2,635.4c-12.1,8.3-18.2,17.3-18.2,26.8
			c0,2,0.4,4.1,1.2,6.3C662.3,663.7,667.9,652.7,670.2,635.4z"/>
		<path class="st2" d="M798.1,579.3c0,2.1-2.6,6.9-7.8,14.5c-5.2,7.5-11.3,14.7-18.2,21.7c-7,6.9-12.5,10.4-16.5,10.4
			c-5.9,0-8.8-2.9-8.8-8.8c0-3.3,1.7-9.9,5.1-19.7c-2,3.5-3.7,6.3-5,8.5c-1.4,2.1-3.4,5-6.1,8.6c-2.7,3.6-5.5,6.4-8.3,8.4
			c-2.8,1.9-5.6,2.9-8.3,2.9c-4.9,0-8.6-1.8-10.9-5.5c-2.4-3.6-3.5-8-3.5-13.2c0-10.2,4.7-20,14.1-29.3c9.4-9.3,19.2-14,29.4-14
			c5.2,0,10.3,1.1,15.5,3.4l0.9,1.2v0.4c0,3.2-2.1,10.8-6.4,23c-4.3,12.2-6.4,20.3-6.4,24.4c0,0.9,0.3,1.8,1,2.5
			c0.6,0.7,1.4,1.1,2.4,1.1c0.9,0,2.1-0.4,3.3-1.2c1.3-0.8,2.7-2,4.3-3.4c1.6-1.5,3.2-3.1,4.8-4.8c1.6-1.8,3.4-3.8,5.2-6.2
			c1.8-2.3,3.5-4.5,5-6.4c1.5-1.9,3.1-4.1,4.8-6.6c1.7-2.5,3.1-4.4,4.1-5.9c1.1-1.5,2.2-3.1,3.4-4.8c1.2-1.8,2-2.8,2.2-3.2
			C797.9,577.6,798.1,578.4,798.1,579.3z M760.6,570.3c-2-1.9-4.6-2.8-7.9-2.8c-6.3,0-13.2,5.7-20.5,17.1c-7.3,11.4-11,20.6-11,27.5
			c0,2,0.4,3.8,1.3,5.4c0.9,1.6,2.3,2.4,4.1,2.4c2.9,0,6.3-2.1,10-6.2c3.7-4.1,7.2-9.3,10.6-15.5c3.3-6.2,6.1-11.5,8.2-16
			C757.4,577.8,759.2,573.9,760.6,570.3z"/>
		<path class="st2" d="M870.7,578.8c0,4.5-6.1,13.3-18.4,26.6c-12.3,13.3-21.5,22-27.8,26.1c-4.8,22-15.9,36.5-33.1,43.7l-1.1-0.2
			c-0.8-1.6-1.2-3.5-1.2-5.5c0-8.3,2.3-15.5,6.8-21.3c4.5-5.9,10.8-11.4,18.9-16.6c0.7-8.5,3.9-20.2,9.5-35.1
			c-10.2,18.7-19.7,28-28.6,28c-4.5,0-7.9-1.8-10.3-5.4c-2.4-3.6-3.6-7.7-3.6-12.4c0-10.9,4.6-20.9,13.9-29.8
			c9.3-8.9,19.4-13.4,30.3-13.4c10.6,0,15.9,1.7,15.9,5.1c0,3.1-5.4,22.1-16.2,57.3c11.2-7.8,26-24.3,44.6-49.5
			C870.6,577.5,870.7,578.2,870.7,578.8z M832.5,570.5c-1.9-2-4.3-3-7.2-3c-6.5,0-13.5,5.5-21,16.4c-7.5,10.9-11.3,19.9-11.3,27
			c0,2,0.5,3.8,1.4,5.4c0.9,1.6,2.4,2.4,4.4,2.4c2.9,0,6.2-2,9.9-5.9c3.6-3.9,7.1-8.9,10.5-15c3.3-6,6-11.2,8-15.4
			C829.2,578.1,831,574.2,832.5,570.5z M814.9,636.4c-11.8,7.3-17.6,15.9-17.6,25.9c0,1.2,0.2,2.8,0.7,4.9
			C807.1,662.5,812.7,652.2,814.9,636.4z"/>
		<path class="st2" d="M933.8,578.3c0,3.2-2.5,8.3-7.6,15.3c-6.5,8.9-13.9,16.6-22.2,23.1c-8.3,6.5-16.9,9.7-25.7,9.7
			c-6.5,0-11.5-2.1-15.2-6.2c-3.6-4.1-5.5-9.4-5.5-15.9c0-9.2,3.8-18.3,11.4-27.5c7.6-9.2,15.9-13.7,24.9-13.7c3.8,0,7.1,1.1,10,3.4
			c2.9,2.2,4.4,5.2,4.4,8.8c0,3.8-1.4,7.4-4.2,11c-2.8,3.6-6.4,6.7-10.8,9.3c-4.3,2.6-8.5,4.8-12.5,6.6c-4,1.8-7.8,3.3-11.5,4.3
			c0,4.3,1.1,7.9,3.4,10.8c2.3,2.8,5.6,4.2,9.8,4.2c4.7,0,9.7-1.6,15-4.8c5.3-3.2,10.2-7.3,14.7-12.4c4.5-5.1,8.5-9.9,11.8-14.5
			c3.3-4.5,6.4-9.1,9.1-13.7C933.7,576.9,933.8,577.6,933.8,578.3z M898,574c0-4.5-1.9-6.7-5.8-6.7c-4.1,0-7.9,2.3-11.5,7
			c-3.5,4.6-6.1,9.4-7.8,14.4c-1.6,4.9-2.8,9.5-3.5,13.7c7.4-1.6,14-5,19.8-10.2C895.1,587,898,581,898,574z"/>
		<path class="st2" d="M1149.2,519.9c0,12.2-10,25.2-30.1,39c-19.5,13.5-43.1,23-70.7,28.4c-0.6,2.6-0.9,5.9-0.9,9.9
			c0,7.2,2,12.8,5.9,16.9c3.9,4.1,9.5,6.2,16.7,6.2c5.4,0,11.5-1.5,18.2-4.6c6.8-3.1,13.4-7.1,19.9-12.1c6.5-5,12.3-9.7,17.2-14.1
			s9.7-9,14.3-13.7l0.9,0.2c-3.4,30.1-8.4,52.3-15,66.8c-2.4,5.3-6.8,11.9-13.2,19.8c-6.5,7.9-11.8,11.9-16,11.9
			c-1.9,0-2.8-2.5-2.8-7.6c0-11,4.3-21.9,12.9-32.4l0.9-0.2l1.2,0.7l0.2,1.1c-4.7,7.4-7.1,14-7.1,19.7c0,3.3,0.8,6.6,2.3,9.9
			c2-1.1,3.9-2.8,5.6-5.2c1.8-2.4,3.3-4.9,4.6-7.5c1.3-2.6,2.5-5.9,3.7-10c1.2-4.1,2.1-7.6,2.8-10.6c0.7-2.9,1.4-6.8,2.2-11.5
			c0.8-4.8,1.3-8.2,1.6-10.4c0.3-2.2,0.7-5.5,1.2-9.9c0.5-4.4,0.9-6.8,1-7.3c-24.6,21.4-45.4,32.1-62.4,32.1
			c-10,0-17.4-3.4-22.3-10.2c-4.9-6.8-7.2-15.4-7-25.7c-5.3,0.8-11,1.2-17.1,1.2c-4.6,0-9.1-0.4-13.7-1.3c-4.5-0.9-9-2.3-13.5-4.1
			c-4.5-1.9-8.1-4.7-10.8-8.4c-2.8-3.7-4.1-8.1-4.1-13.1c0-4.8,1.3-9,4.1-12.7c2.7-3.6,6.3-6.4,10.7-8.3c4.4-1.9,8.8-3.3,13.2-4.1
			c4.4-0.9,8.8-1.3,13.3-1.3c11.3,0,24.3,2.1,39.1,6.2c9.4-11.2,20.6-20.8,33.7-28.8c13-8,25.8-12.1,38.4-12.1
			c6.2,0,11.3,1.4,15.2,4.2C1147.3,509.5,1149.2,513.9,1149.2,519.9z M1053.5,546.5c-11.2-3.1-21.2-4.6-30-4.6
			c-5.5,0-10.9,0.6-16.1,1.9c-5.2,1.2-10,3.7-14.5,7.4c-4.4,3.7-6.6,8.4-6.6,14c0,5.3,1.9,9.7,5.6,13.1c3.8,3.5,8,5.8,12.6,6.9
			c4.6,1.1,9.6,1.7,14.9,1.7c4.5,0,9.8-0.4,15.9-1.2C1037.1,573.9,1043.2,560.9,1053.5,546.5z M1137.6,520.8c0-4.3-1.2-7.7-3.7-10.1
			c-2.5-2.4-5.9-3.6-10.2-3.6c-6.2,0-13.2,2.5-20.9,7.5c-7.7,5-14.2,10.2-19.6,15.7c-5.3,5.5-10.3,11.1-14.9,17
			c4.6,1.5,9.2,3.3,13.7,5.3l0.5,1.4l-1.1,1.8h-0.9c-5.1-2.1-10-3.9-15-5.3c-7.4,9.9-12.8,20.9-16.2,33c16.9-3.2,31.4-7.8,43.4-13.9
			c4.8-2.5,9.5-5.3,14.1-8.4c4.6-3.1,9.3-6.8,14.3-11c4.9-4.2,8.9-8.9,11.9-14C1136.1,531,1137.6,525.9,1137.6,520.8z"/>
		<path class="st2" d="M1224.8,579c0,2.8-2.7,8-8.1,15.6c-5.4,7.6-11.8,14.7-19.3,21.5c-7.5,6.8-13.5,10.1-18.1,10.1
			c-5.5,0-9.6-2.1-12.2-6.3c-2.6-4.2-3.9-9.3-3.9-15.3c0-13.2,4.2-32,12.7-56.7c8.5-24.6,17.1-40,25.9-46.1l1.2-0.2
			c2,2.1,3,6.4,3,12.9c0,24.9-9.9,49.9-29.6,75.1c-1.2,6.6-1.8,11.5-1.8,14.8c0,10.1,2.9,15.2,8.6,15.2c7.9,0,21-13.8,39.5-41.4
			c0.7-1.1,1.2-1.8,1.4-2.1C1224.6,576.8,1224.8,577.8,1224.8,579z M1196.6,533.3c0-4.5-0.5-9.9-1.6-16.2c-9.2,18-15,39.8-17.6,65.4
			C1190.2,565.7,1196.6,549.3,1196.6,533.3z"/>
		<path class="st2" d="M1299,577.4c0,4-4.8,11.7-14.4,23.2c-9.6,11.5-16.6,17.2-21.1,17.2c-2.6,0-4.8-1.1-6.7-3.2
			c-8,8-16.1,12-24.3,12c-6.7,0-12.1-2.1-16.1-6.2c-4.1-4.1-6.1-9.5-6.1-16.2c0-9.8,4.1-19,12.2-27.8c8.2-8.8,17.1-13.2,26.9-13.2
			c6,0,10.8,2.2,14.4,6.7c3.6,4.5,5.4,9.8,5.4,15.9c0,6.8-2.2,14-6.7,21.5c0.5,2.5,1.9,3.7,4.4,3.7c1.1,0,2.3-0.5,3.9-1.6
			c1.5-1.1,3.2-2.6,5-4.5c1.8-1.9,3.6-4,5.4-6.1c1.8-2.1,3.6-4.5,5.6-7.1c1.9-2.6,3.6-4.9,4.9-6.7c1.4-1.8,2.8-3.8,4.2-5.9
			c1.5-2.1,2.3-3.3,2.6-3.7c0,0.1,0.1,0.3,0.2,0.6c0.1,0.3,0.2,0.6,0.3,0.8C1299,576.9,1299,577.2,1299,577.4z M1260.2,579.2
			c-1.6-8.2-5.5-12.3-11.6-12.3c-4.6,0-8.9,2.6-13,7.7c-4.1,5.1-7.2,10.8-9.3,16.9c-2.1,6.2-3.2,11.5-3.2,16c0,4.2,0.9,7.8,2.6,10.8
			c1.8,3,4.6,4.5,8.6,4.5c6.1,0,12.3-4.9,18.7-14.8c-0.8-2-1.2-4.2-1.2-6.5C1251.8,594.1,1254.6,586.7,1260.2,579.2z"/>
		<path class="st2" d="M1372.5,579.2c0,4-4.2,11.1-12.7,21.4c-8.5,10.3-15,15.4-19.6,15.4c-3.3,0-6-1.4-8.1-4.1
			c-6.5,9.3-13.6,13.9-21.5,13.9c-6.1,0-10.6-2.3-13.5-7c-2.9-4.6-4.3-10.2-4.3-16.8c0-8.6,2.3-19.8,7.1-33.6
			c4.7-13.8,10.8-27.1,18.2-39.7c7.4-12.7,14.5-21.5,21.2-26.4l1.1,0.2c1.2,1.5,1.8,4.5,1.8,8.8c0,16.2-3.1,30.9-9.4,44.2
			c-6.3,13.2-15.6,27.4-27.9,42.6c-0.2,2.4-0.4,4.2-0.4,5.5c0,11.2,3.4,16.7,10.2,16.7c5.4,0,10.7-4.2,15.9-12.5
			c-1.6-2.9-2.5-6.8-2.5-11.5c0-12.6,3.8-22.7,11.5-30.3h0.7c1.6,2.6,2.5,5.7,2.5,9.3c0,12.3-2.6,23.1-7.8,32.3
			c1.1,2.8,2.9,4.2,5.5,4.2c1.3,0,2.8-0.5,4.4-1.5c1.6-1,3.4-2.5,5.3-4.4c1.9-1.9,3.6-3.8,5.2-5.7c1.6-1.9,3.4-4.2,5.4-7.1
			c2-2.8,3.5-5,4.6-6.5c1.1-1.5,2.4-3.6,4.1-6.1c1.6-2.5,2.5-3.8,2.6-4C1372.3,577.3,1372.5,578.2,1372.5,579.2z M1332.3,529.3
			c0-4-0.5-7.9-1.6-11.8c-10.6,13.4-19,37.7-25.4,72.8C1323.3,569.1,1332.3,548.8,1332.3,529.3z"/>
		<path class="st2" d="M1444.8,579.3c0,2.1-2.6,6.9-7.8,14.5c-5.2,7.5-11.3,14.7-18.2,21.7c-7,6.9-12.5,10.4-16.5,10.4
			c-5.9,0-8.8-2.9-8.8-8.8c0-3.3,1.7-9.9,5.1-19.7c-2,3.5-3.7,6.3-5,8.5c-1.4,2.1-3.4,5-6.1,8.6c-2.7,3.6-5.5,6.4-8.3,8.4
			c-2.8,1.9-5.6,2.9-8.3,2.9c-4.9,0-8.6-1.8-10.9-5.5c-2.4-3.6-3.5-8-3.5-13.2c0-10.2,4.7-20,14.1-29.3c9.4-9.3,19.2-14,29.4-14
			c5.2,0,10.3,1.1,15.5,3.4l0.9,1.2v0.4c0,3.2-2.1,10.8-6.4,23c-4.3,12.2-6.4,20.3-6.4,24.4c0,0.9,0.3,1.8,1,2.5
			c0.6,0.7,1.4,1.1,2.4,1.1c0.9,0,2.1-0.4,3.3-1.2c1.3-0.8,2.7-2,4.3-3.4c1.6-1.5,3.2-3.1,4.8-4.8c1.6-1.8,3.4-3.8,5.2-6.2
			c1.8-2.3,3.5-4.5,5-6.4c1.5-1.9,3.1-4.1,4.8-6.6c1.7-2.5,3.1-4.4,4.1-5.9s2.2-3.1,3.4-4.8c1.2-1.8,2-2.8,2.2-3.2
			C1444.6,577.6,1444.8,578.4,1444.8,579.3z M1407.2,570.3c-2-1.9-4.6-2.8-7.9-2.8c-6.3,0-13.2,5.7-20.5,17.1
			c-7.3,11.4-11,20.6-11,27.5c0,2,0.4,3.8,1.3,5.4c0.9,1.6,2.3,2.4,4.1,2.4c2.9,0,6.3-2.1,10-6.2c3.7-4.1,7.2-9.3,10.6-15.5
			c3.3-6.2,6.1-11.5,8.2-16C1404.1,577.8,1405.8,573.9,1407.2,570.3z"/>
		<path class="st2" d="M1500.8,579c0,2.8-2.7,8-8.1,15.6c-5.4,7.6-11.8,14.7-19.3,21.5c-7.5,6.8-13.5,10.1-18.1,10.1
			c-5.5,0-9.6-2.1-12.2-6.3c-2.6-4.2-3.9-9.3-3.9-15.3c0-13.2,4.2-32,12.7-56.7c8.5-24.6,17.1-40,25.9-46.1l1.2-0.2
			c2,2.1,3,6.4,3,12.9c0,24.9-9.9,49.9-29.6,75.1c-1.2,6.6-1.8,11.5-1.8,14.8c0,10.1,2.9,15.2,8.6,15.2c7.9,0,21-13.8,39.5-41.4
			c0.7-1.1,1.2-1.8,1.4-2.1C1500.6,576.8,1500.8,577.8,1500.8,579z M1472.6,533.3c0-4.5-0.5-9.9-1.6-16.2c-9.2,18-15,39.8-17.6,65.4
			C1466.2,565.7,1472.6,549.3,1472.6,533.3z"/>
	</g>
</g>
</svg>
