<?xml version="1.0" encoding="utf-8"?>
<!-- Generator: Adobe Illustrator 22.0.0, SVG Export Plug-In . SVG Version: 6.00 Build 0)  -->
<svg version="1.1" id="Layer_1" xmlns="http://www.w3.org/2000/svg" xmlns:xlink="http://www.w3.org/1999/xlink" x="0px" y="0px"
	 viewBox="0 0 1920 1080" style="enable-background:new 0 0 1920 1080;" xml:space="preserve">
<style type="text/css">
	.st0{fill:#CFAD80;}
</style>
<g>
	<g>
		<path class="st0" d="M1357.2,440.1l17.3,69.8l4-2.2l-2.3-80.6c0,0,36.4-22.8,44.3-29.5c2.6-2.6,12.8-12.5,10-18.8
			c-4.7-5.1-17.8,0.1-21.3,1.4c-9.4,4.6-45.1,28.4-45.1,28.4l-72.6-35.1l-3.7,2.7l56.6,44.4c0,0-17.3,12.8-26,19.7
			c-8.7,6.9-28.4,23.9-28.4,23.9l-23.8-8.4l-0.4,1.8l17.7,16.3l7.6,22.8l1.8,0.3l2.1-25.2c0,0,23.6-11,33.5-16.1
			C1338.4,450.6,1357.2,440.1,1357.2,440.1z"/>
		<g>
			<path class="st0" d="M1119.4,566.1c50.6-15.6,95.4-41.1,132.9-73.8c-27.3,17.5-57.4,31.6-89.9,41.6c-3,0.9-6.1,1.8-9.1,2.7
				c-2.4,0.7-4.8,1.3-7.3,2c-2.4,0.6-4.7,1.2-7.1,1.8l-0.6,0.2c-2.6,0.6-5.2,1.2-7.8,1.7c-2.3,0.5-4.7,1-7.1,1.5
				c-0.8,0.1-1.5,0.3-2.3,0.4c-2.2,0.4-4.4,0.8-6.6,1.2c-2.6,0.5-5.3,0.9-8,1.3c-4.2,0.6-8.4,1.2-12.5,1.6
				c-6.7,0.8-13.3,1.3-19.9,1.7c-1.7,0.1-3.4,0.2-5,0.2c-1.9,0.1-3.8,0.1-5.7,0.2c-4.4,0.1-8.8,0.2-13.2,0.1c-5,0-10-0.2-15-0.5
				c-2.6-0.1-5.2-0.3-7.8-0.5c-2.6-0.2-5.2-0.4-7.8-0.7c-2-0.2-3.9-0.3-5.9-0.6c-2.4-0.2-4.7-0.5-7.1-0.9c-2-0.2-4-0.5-5.9-0.8
				c-2.2-0.3-4.4-0.7-6.6-1.1c-1.8-0.3-3.7-0.6-5.5-1c-3-0.5-6-1.1-9-1.7c-4.6-0.9-9.2-2-13.8-3.1c-1.7-0.4-3.4-0.8-5-1.3
				c-3.3-0.8-6.7-1.8-9.9-2.8c-2.5-0.7-4.9-1.5-7.4-2.2c-2.4-0.7-4.9-1.6-7.3-2.4c-2.4-0.8-4.8-1.6-7.3-2.5
				c-2.4-0.9-4.8-1.8-7.2-2.7c-2.4-0.9-4.8-1.9-7.2-2.8c-2.9-1.2-5.8-2.4-8.6-3.7c-1.5-0.6-3-1.3-4.5-2c-2.2-1-4.3-2-6.5-3.1
				c-0.1,0-0.2,0-0.2-0.1c-0.1,0-0.2,0-0.2-0.1c-5.8-2.4-11.7-4.6-17.7-6.7c-45.9-21.5-96.2-33.6-148-34.7
				c-38.4-0.9-77.6,4.4-116.4,16.4c-50.6,15.6-95.4,41.1-132.9,73.8c27.3-17.5,57.4-31.6,89.9-41.6c3-0.9,6.1-1.8,9.1-2.7
				c2.4-0.7,4.8-1.3,7.3-2c2.4-0.6,4.7-1.2,7.1-1.8l0.6-0.2c2.6-0.6,5.2-1.2,7.8-1.7c2.3-0.5,4.7-1,7.1-1.5c0.8-0.1,1.5-0.3,2.3-0.4
				c2.2-0.4,4.4-0.8,6.6-1.2c2.6-0.5,5.3-0.9,8-1.3c4.2-0.6,8.4-1.2,12.5-1.6c6.7-0.8,13.3-1.3,19.9-1.7c1.7-0.1,3.4-0.2,5-0.2
				c1.9-0.1,3.8-0.1,5.7-0.2c4.4-0.1,8.8-0.2,13.2-0.1c5,0,10,0.2,15,0.5c2.6,0.1,5.2,0.3,7.8,0.5c2.6,0.2,5.2,0.4,7.8,0.7
				c2,0.2,3.9,0.3,5.9,0.6c2.4,0.2,4.7,0.5,7.1,0.9c2,0.2,4,0.5,5.9,0.8c2.2,0.3,4.4,0.7,6.6,1.1c1.8,0.3,3.7,0.6,5.5,1
				c3,0.5,6,1.1,9,1.7c4.6,0.9,9.2,2,13.8,3.1c1.7,0.4,3.4,0.8,5,1.3c3.3,0.8,6.7,1.8,9.9,2.8c2.5,0.7,4.9,1.5,7.4,2.2
				c2.4,0.7,4.9,1.6,7.3,2.4c2.4,0.8,4.8,1.6,7.3,2.5c2.4,0.9,4.8,1.8,7.2,2.7c2.4,0.9,4.8,1.9,7.2,2.8c2.9,1.2,5.8,2.4,8.6,3.7
				c1.5,0.6,3,1.3,4.5,2c2.2,1,4.3,2,6.5,3.1c0.1,0,0.2,0,0.2,0.1c0.1,0,0.2,0,0.2,0.1c5.8,2.4,11.7,4.6,17.7,6.7
				c45.9,21.5,96.2,33.6,148,34.7C1041.4,583.3,1080.7,578,1119.4,566.1z"/>
		</g>
	</g>
</g>
</svg>
